<?xml version="1.0" encoding="utf-8"?>
<svg viewBox="61.866 90.583 603.245 349.815" width="603.245" height="349.815" xmlns="http://www.w3.org/2000/svg">
  <defs>
    <linearGradient id="o_f0f2m8jlb_182" x1="0" y1="0.5" x2="1" y2="0.5">
      <stop id="_BHsq4p1qAd5KargPr_mGY" offset="0" style="stop-color: rgb(95, 228, 249);"/>
      <stop id="_Fil-3fkmygADUM_R7pzLf" offset="1" style="stop-color: rgb(0, 130, 149);"/>
    </linearGradient>
  </defs>
  <path id="_tMLbDoPeHYDf8vvgFsJ3A" fill="url(#o_f0f2m8jlb_182)" d="M 109.265 94.432 C 114.759 94.432 119.212 89.977 119.212 84.483 C 119.212 78.992 114.759 74.536 109.265 74.536 C 103.771 74.536 99.319 78.992 99.319 84.483 C 99.319 85.69 99.545 86.842 99.939 87.915 L 70.903 112.649 L 34.114 91.009 C 34.323 90.16 34.446 89.273 34.446 88.358 C 34.446 82.232 29.481 77.267 23.355 77.267 C 20.87 77.267 18.585 78.094 16.738 79.475 L -16.503 53.082 C -16.348 52.452 -16.257 51.8 -16.257 51.125 C -16.257 46.604 -19.92 42.943 -24.439 42.943 C -28.957 42.943 -32.621 46.607 -32.621 51.125 C -32.621 53.21 -31.834 55.109 -30.55 56.553 L -47.237 92.267 C -47.981 92.139 -48.742 92.056 -49.525 92.056 C -51.985 92.056 -54.278 92.739 -56.249 93.906 L -100.399 74.13 C -100.296 73.487 -100.228 72.832 -100.228 72.16 C -100.228 65.353 -105.744 59.837 -112.551 59.837 C -119.354 59.837 -124.874 65.353 -124.874 72.16 C -124.874 78.966 -119.357 84.483 -112.551 84.483 C -108.684 84.483 -105.241 82.701 -102.982 79.918 L -60.993 98.725 C -62.091 100.652 -62.729 102.877 -62.729 105.257 C -62.729 107.693 -61.891 109.847 -60.744 111.806 L -84.29 135.362 C -87.538 133.043 -91.456 131.662 -95.738 131.662 C -103.293 131.662 -109.794 135.954 -113.131 142.198 L -113.406 142.106 C -113.409 142.14 -113.417 142.172 -113.42 142.206 L -146.246 127.289 C -146.2 126.906 -146.174 126.514 -146.174 126.119 C -146.174 120.431 -150.784 115.821 -156.472 115.821 C -162.161 115.821 -166.771 120.431 -166.771 126.119 C -166.771 131.808 -162.161 136.418 -156.472 136.418 C -153.458 136.418 -150.756 135.117 -148.874 133.052 L -115.348 148.292 C -115.362 148.329 -115.373 148.363 -115.391 148.398 L -115.23 148.452 C -115.385 149.447 -115.539 150.437 -115.539 151.469 C -115.539 157.057 -113.214 162.096 -109.491 165.697 L -109.539 165.734 C -109.528 165.748 -109.516 165.763 -109.505 165.774 L -126.587 190.947 C -127.03 190.869 -127.485 190.821 -127.954 190.821 C -132.184 190.821 -135.613 194.247 -135.613 198.479 C -135.613 202.709 -132.184 206.138 -127.954 206.138 C -123.724 206.138 -120.295 202.709 -120.295 198.479 C -120.295 197.047 -120.696 195.708 -121.382 194.561 L -106.042 171.957 L -104.011 169.449 C -101.492 170.613 -98.695 171.282 -95.735 171.282 C -90.295 171.282 -85.356 169.077 -81.77 165.517 L -61.771 179.79 C -62.34 181.26 -62.726 182.822 -62.726 184.483 C -62.726 191.77 -56.821 197.687 -49.522 197.687 C -43.348 197.687 -38.183 193.446 -36.736 187.729 L 8.781 173.65 C 11.575 178.841 17.055 182.373 23.364 182.373 C 27.004 182.373 30.362 181.18 33.096 179.187 L 53.458 198.093 C 53.349 198.645 53.289 199.217 53.289 199.801 C 53.289 204.76 57.31 208.781 62.269 208.781 C 67.228 208.781 71.246 204.763 71.246 199.801 C 71.246 194.845 67.228 190.824 62.269 190.824 C 60.247 190.824 58.386 191.499 56.884 192.628 L 37.406 174.545 C 38.984 172.009 39.96 169.026 39.96 165.823 C 39.96 157.772 35.209 151.066 26.63 149.587 L 26.63 98.982 C 29.49 98.49 29.724 97.615 30.957 96.471 L 69.084 118.915 L 101.055 163.686 C 100.792 164.344 100.637 165.062 100.637 165.817 C 100.637 169.034 103.24 171.643 106.457 171.643 C 109.674 171.643 112.282 169.034 112.282 165.817 C 112.282 162.6 109.671 159.992 106.454 159.992 C 106.368 159.992 106.282 160 106.197 160.006 L 75.51 117.051 L 103.912 92.859 C 105.456 93.852 107.292 94.432 109.265 94.432 Z M 6.805 165.817 C 6.805 166.418 6.842 167.007 6.905 167.59 L -36.779 181.1 C -38.272 175.452 -43.402 171.277 -49.528 171.277 C -52.74 171.277 -55.574 172.566 -57.859 174.46 L -77.987 160.097 C -76.708 157.466 -75.936 154.578 -75.936 151.469 C -75.936 147.202 -77.329 143.259 -79.625 140.033 L -56.08 116.476 C -54.118 117.623 -51.968 118.461 -49.528 118.461 C -44.832 118.461 -40.723 116.01 -38.383 112.321 L 10.869 154.972 C 8.347 157.881 6.805 161.665 6.805 165.817 Z M 20.904 149.582 C 18.044 149.868 17.658 150.362 16.34 151.017 L -36.167 105.7 C -36.161 105.551 -36.233 105.408 -36.233 105.26 C -36.233 101.013 -38.286 97.246 -41.398 94.833 L -24.813 59.29 C -24.682 59.296 -24.562 59.31 -24.43 59.31 C -22.914 59.31 -21.504 58.89 -20.286 58.169 L 12.948 84.563 C 12.516 85.75 12.625 87.025 12.625 88.361 C 12.625 93.386 15.185 97.621 20.904 98.985 L 20.904 149.582 Z" transform="matrix(2.109375, 0, 0, 2.109375, 413.648226, 0)"/>
</svg>