<svg id="visual" viewBox="0 0 900 600" width="900" height="600" xmlns="http://www.w3.org/2000/svg" xmlns:xlink="http://www.w3.org/1999/xlink" version="1.1"><rect x="0" y="0" width="900" height="600" fill="#018396"></rect><path d="M0 439L100 512L200 505L300 447L400 432L500 479L600 506L700 478L800 539L900 443L900 0L800 0L700 0L600 0L500 0L400 0L300 0L200 0L100 0L0 0Z" fill="#5ee3f8"></path><path d="M0 379L100 477L200 423L300 473L400 458L500 450L600 373L700 474L800 396L900 432L900 0L800 0L700 0L600 0L500 0L400 0L300 0L200 0L100 0L0 0Z" fill="#46bfde"></path><path d="M0 353L100 383L200 407L300 379L400 367L500 404L600 394L700 324L800 351L900 388L900 0L800 0L700 0L600 0L500 0L400 0L300 0L200 0L100 0L0 0Z" fill="#349dc1"></path><path d="M0 344L100 329L200 263L300 313L400 302L500 343L600 315L700 342L800 302L900 269L900 0L800 0L700 0L600 0L500 0L400 0L300 0L200 0L100 0L0 0Z" fill="#277ba3"></path><path d="M0 218L100 284L200 282L300 220L400 205L500 260L600 220L700 230L800 205L900 253L900 0L800 0L700 0L600 0L500 0L400 0L300 0L200 0L100 0L0 0Z" fill="#1e5b83"></path><path d="M0 190L100 175L200 212L300 165L400 173L500 203L600 159L700 176L800 149L900 194L900 0L800 0L700 0L600 0L500 0L400 0L300 0L200 0L100 0L0 0Z" fill="#153d62"></path><path d="M0 145L100 117L200 137L300 150L400 122L500 90L600 128L700 108L800 101L900 108L900 0L800 0L700 0L600 0L500 0L400 0L300 0L200 0L100 0L0 0Z" fill="#0b2142"></path><path d="M0 50L100 62L200 75L300 39L400 46L500 79L600 59L700 86L800 38L900 76L900 0L800 0L700 0L600 0L500 0L400 0L300 0L200 0L100 0L0 0Z" fill="#020024"></path></svg>