<svg xmlns="http://www.w3.org/2000/svg" id="canvas" viewBox="543.684 319.736 727.276 224.179"><path d="M 551.13,337.43 C 549.84 339.31, 550.58 341.74, 550.72 346.46 C 550.87 351.18, 551.28 354.38, 551.85 361.05 C 552.43 367.72, 553.00 371.76, 553.58 379.80 C 554.17 387.85, 554.36 392.46, 554.77 401.29 C 555.19 410.12, 555.43 414.68, 555.65 423.96 C 555.88 433.25, 555.81 438.76, 555.90 447.71 C 555.98 456.67, 556.10 460.83, 556.09 468.72 C 556.08 476.60, 556.17 480.63, 555.86 487.12 C 555.55 493.61, 554.88 496.76, 554.55 501.16 C 554.21 505.55, 553.93 506.91, 554.17 509.11 C 554.40 511.31, 554.91 511.41, 555.73 512.17 C 556.54 512.94, 557.08 513.36, 558.26 512.94 C 559.44 512.53, 560.79 512.38, 561.62 510.09 C 562.45 507.80, 562.35 506.07, 562.39 501.49 C 562.44 496.90, 562.06 493.72, 561.82 487.15 C 561.58 480.58, 561.43 476.54, 561.19 468.64 C 560.96 460.74, 560.81 456.60, 560.65 447.65 C 560.49 438.69, 560.55 433.17, 560.39 423.86 C 560.22 414.55, 559.99 409.99, 559.81 401.12 C 559.62 392.25, 559.66 387.61, 559.47 379.52 C 559.27 371.43, 559.00 367.35, 558.84 360.66 C 558.67 353.97, 558.98 350.77, 558.65 346.06 C 558.31 341.34, 558.67 338.80, 557.17 337.07 C 555.67 335.35, 552.42 335.56, 551.13 337.43" style="stroke: black; fill: black;"/><path d="M 554.64,356.81 C 556.71 356.49, 557.68 355.45, 559.04 353.64 C 560.40 351.83, 560.03 350.46, 561.46 347.78 C 562.89 345.09, 563.34 342.90, 566.20 340.21 C 569.06 337.53, 570.82 336.23, 575.75 334.34 C 580.69 332.46, 584.34 331.46, 590.88 330.79 C 597.41 330.12, 601.36 330.29, 608.43 330.99 C 615.50 331.68, 619.57 332.44, 626.24 334.25 C 632.91 336.06, 636.47 337.29, 641.78 340.04 C 647.09 342.78, 649.73 344.77, 652.79 347.98 C 655.86 351.18, 656.52 352.91, 657.10 356.06 C 657.67 359.21, 657.66 360.18, 655.69 363.73 C 653.71 367.29, 652.11 369.64, 647.23 373.83 C 642.35 378.03, 638.17 380.58, 631.29 384.73 C 624.40 388.88, 620.04 391.16, 612.82 394.57 C 605.60 397.98, 601.42 399.72, 595.18 401.77 C 588.94 403.83, 585.50 403.52, 581.62 404.83 C 577.75 406.14, 576.35 406.56, 575.82 408.33 C 575.29 410.11, 576.27 413.10, 578.97 413.71 C 581.68 414.32, 583.85 412.39, 589.34 411.39 C 594.83 410.40, 598.69 409.45, 606.43 408.73 C 614.16 408.01, 618.99 407.64, 628.01 407.80 C 637.02 407.97, 642.21 408.06, 651.51 409.55 C 660.81 411.03, 666.08 412.36, 674.51 415.23 C 682.93 418.09, 687.35 420.07, 693.61 423.87 C 699.87 427.67, 702.42 430.07, 705.78 434.23 C 709.14 438.39, 710.15 440.36, 710.41 444.67 C 710.67 448.99, 709.91 451.11, 707.09 455.81 C 704.27 460.50, 701.92 463.26, 696.31 468.16 C 690.70 473.06, 686.62 475.81, 679.03 480.31 C 671.44 484.80, 666.55 487.01, 658.36 490.63 C 650.17 494.25, 645.62 496.14, 638.08 498.40 C 630.53 500.67, 626.62 501.22, 620.63 501.96 C 614.64 502.71, 611.98 501.91, 608.12 502.13 C 604.27 502.35, 602.76 502.09, 601.36 503.07 C 599.95 504.05, 599.72 505.87, 601.08 507.04 C 602.44 508.21, 604.05 508.73, 608.14 508.93 C 612.24 509.12, 615.24 509.12, 621.54 508.01 C 627.84 506.90, 631.88 505.93, 639.64 503.36 C 647.41 500.80, 651.97 498.90, 660.37 495.19 C 668.77 491.48, 673.72 489.36, 681.65 484.82 C 689.59 480.29, 693.89 477.69, 700.04 472.51 C 706.19 467.34, 709.10 464.61, 712.41 458.96 C 715.72 453.30, 717.03 449.91, 716.59 444.24 C 716.15 438.57, 714.30 435.57, 710.23 430.61 C 706.15 425.65, 703.07 423.43, 696.23 419.45 C 689.38 415.48, 684.80 413.66, 676.01 410.75 C 667.22 407.84, 661.83 406.55, 652.27 404.92 C 642.71 403.29, 637.45 403.18, 628.22 402.61 C 618.98 402.04, 614.11 402.00, 606.10 402.05 C 598.10 402.10, 594.01 402.32, 588.19 402.85 C 582.37 403.38, 579.41 402.95, 577.00 404.68 C 574.59 406.41, 574.82 409.91, 576.15 411.50 C 577.47 413.09, 579.38 413.38, 583.62 412.61 C 587.86 411.85, 591.02 410.24, 597.35 407.67 C 603.69 405.10, 607.89 403.30, 615.29 399.75 C 622.68 396.20, 627.09 394.07, 634.33 389.91 C 641.57 385.74, 645.95 383.46, 651.49 378.92 C 657.03 374.38, 659.44 372.03, 662.04 367.20 C 664.64 362.37, 665.33 359.58, 664.50 354.75 C 663.67 349.92, 661.87 347.14, 657.90 343.05 C 653.92 338.97, 650.66 337.24, 644.64 334.32 C 638.62 331.40, 634.91 330.34, 627.80 328.45 C 620.69 326.56, 616.58 325.73, 609.09 324.86 C 601.60 323.99, 597.50 323.70, 590.35 324.11 C 583.20 324.52, 579.35 325.26, 573.35 326.92 C 567.35 328.57, 564.80 329.63, 560.36 332.38 C 555.93 335.13, 553.89 337.37, 551.18 340.66 C 548.47 343.95, 547.32 345.92, 546.83 348.84 C 546.33 351.76, 547.15 353.67, 548.71 355.26 C 550.28 356.85, 552.58 357.14, 554.64 356.81" style="stroke: black; fill: black;"/><path d="M 751.02,324.90 C 750.14 327.23, 751.56 329.94, 752.52 335.49 C 753.48 341.05, 754.42 345.01, 755.82 352.68 C 757.23 360.35, 758.07 365.13, 759.56 373.85 C 761.05 382.57, 761.80 387.48, 763.29 396.28 C 764.78 405.08, 765.51 409.39, 767.03 417.84 C 768.56 426.29, 769.35 430.65, 770.91 438.51 C 772.48 446.38, 773.24 450.39, 774.85 457.17 C 776.46 463.95, 777.04 467.14, 778.97 472.43 C 780.90 477.71, 782.36 481.86, 784.50 483.60 C 786.64 485.34, 789.62 483.78, 789.66 481.13 C 789.69 478.48, 786.51 475.42, 784.65 470.35 C 782.80 465.28, 782.14 462.36, 780.39 455.78 C 778.64 449.20, 777.64 445.22, 775.91 437.46 C 774.19 429.70, 773.33 425.36, 771.77 416.97 C 770.21 408.58, 769.48 404.29, 768.11 395.50 C 766.74 386.70, 766.16 381.77, 764.91 373.01 C 763.67 364.24, 763.03 359.41, 761.89 351.68 C 760.74 343.94, 760.17 339.89, 759.18 334.33 C 758.20 328.76, 758.58 325.74, 756.95 323.85 C 755.32 321.97, 751.91 322.57, 751.02 324.90" style="stroke: black; fill: black;"/><path d="M 897.26,434.79 C 895.87 432.97, 893.55 431.94, 889.32 431.65 C 885.08 431.36, 881.72 432.04, 876.08 433.33 C 870.44 434.63, 866.91 435.73, 861.11 438.13 C 855.32 440.54, 852.03 442.13, 847.10 445.36 C 842.18 448.60, 839.42 450.23, 836.51 454.31 C 833.59 458.39, 832.44 461.19, 832.52 465.76 C 832.60 470.33, 833.91 473.21, 836.90 477.17 C 839.89 481.14, 842.43 482.63, 847.45 485.57 C 852.48 488.50, 855.79 489.81, 862.02 491.85 C 868.24 493.88, 871.93 494.87, 878.58 495.74 C 885.23 496.61, 888.93 496.54, 895.27 496.20 C 901.60 495.86, 904.86 495.76, 910.24 494.02 C 915.63 492.29, 918.40 491.00, 922.19 487.53 C 925.97 484.05, 927.68 481.31, 929.17 476.64 C 930.66 471.97, 930.46 468.99, 929.63 464.16 C 928.80 459.33, 927.37 456.70, 925.02 452.50 C 922.67 448.31, 920.92 446.22, 917.89 443.17 C 914.85 440.11, 912.77 438.15, 909.84 437.23 C 906.92 436.32, 904.84 437.51, 903.27 438.59 C 901.70 439.68, 901.79 441.01, 901.98 442.66 C 902.17 444.30, 902.61 445.06, 904.21 446.81 C 905.82 448.56, 907.56 449.21, 910.02 451.40 C 912.48 453.60, 914.43 454.86, 916.50 457.79 C 918.57 460.72, 919.55 462.78, 920.39 466.06 C 921.23 469.34, 921.45 471.08, 920.70 474.20 C 919.94 477.32, 919.16 479.10, 916.60 481.66 C 914.05 484.23, 912.25 485.49, 907.90 487.01 C 903.55 488.53, 900.53 488.89, 894.85 489.25 C 889.18 489.62, 885.61 489.73, 879.53 488.85 C 873.45 487.96, 870.02 486.89, 864.46 484.83 C 858.89 482.77, 855.84 481.14, 851.71 478.53 C 847.59 475.93, 845.93 474.41, 843.85 471.81 C 841.77 469.21, 841.43 468.03, 841.31 465.52 C 841.19 463.00, 841.22 461.93, 843.25 459.23 C 845.28 456.54, 847.28 454.74, 851.46 452.05 C 855.64 449.35, 858.86 447.76, 864.15 445.76 C 869.43 443.76, 872.85 442.95, 877.87 442.05 C 882.90 441.15, 885.61 441.55, 889.29 441.28 C 892.96 441.02, 894.64 442.02, 896.23 440.72 C 897.83 439.42, 898.64 436.60, 897.26 434.79" style="stroke: black; fill: black;"/><path d="M 965.15,452.81 C 964.96 454.86, 965.68 455.58, 966.46 457.40 C 967.24 459.23, 967.87 460.14, 969.05 461.94 C 970.24 463.74, 970.81 465.04, 972.39 466.41 C 973.97 467.77, 975.44 467.95, 976.93 468.75 C 978.43 469.56, 978.47 469.95, 979.87 470.42 C 981.27 470.89, 982.32 471.89, 983.93 471.10 C 985.54 470.31, 987.16 469.24, 987.92 466.47 C 988.67 463.70, 988.93 460.60, 987.71 457.26 C 986.48 453.93, 984.52 452.10, 981.78 449.79 C 979.04 447.48, 976.88 446.25, 974.01 445.72 C 971.14 445.19, 969.20 445.72, 967.43 447.14 C 965.66 448.56, 965.35 450.76, 965.15 452.81" style="stroke: black; fill: black;"/><path d="M 974.60,522.30 C 974.07 523.21, 976.64 523.88, 978.76 523.41 C 980.89 522.93, 983.97 522.06, 985.23 519.94 C 986.48 517.83, 985.80 516.54, 985.03 512.85 C 984.26 509.16, 982.61 506.34, 981.38 501.47 C 980.14 496.61, 979.53 493.47, 978.85 488.52 C 978.16 483.57, 977.82 481.08, 977.95 476.70 C 978.07 472.33, 978.65 470.20, 979.47 466.64 C 980.30 463.08, 980.69 461.58, 982.07 458.90 C 983.45 456.23, 984.05 455.14, 986.35 453.28 C 988.66 451.41, 989.89 450.79, 993.58 449.58 C 997.27 448.36, 999.80 447.93, 1004.82 447.21 C 1009.84 446.49, 1012.82 446.42, 1018.68 445.98 C 1024.54 445.54, 1027.89 445.49, 1034.11 445.01 C 1040.33 444.54, 1044.30 444.25, 1049.78 443.61 C 1055.25 442.97, 1057.61 442.88, 1061.47 441.81 C 1065.32 440.75, 1067.77 439.95, 1069.04 438.28 C 1070.31 436.61, 1069.64 434.33, 1067.80 433.45 C 1065.97 432.56, 1063.69 433.41, 1059.88 433.87 C 1056.07 434.34, 1054.03 435.02, 1048.76 435.77 C 1043.49 436.52, 1039.62 437.10, 1033.51 437.62 C 1027.41 438.15, 1024.16 438.15, 1018.24 438.40 C 1012.31 438.65, 1009.35 438.42, 1003.89 438.87 C 998.42 439.33, 995.62 439.34, 990.89 440.68 C 986.16 442.01, 983.74 442.80, 980.22 445.54 C 976.71 448.29, 975.26 450.57, 973.30 454.42 C 971.34 458.26, 971.26 460.37, 970.44 464.77 C 969.61 469.18, 969.32 471.52, 969.17 476.44 C 969.01 481.35, 969.41 484.02, 969.66 489.35 C 969.90 494.68, 970.16 497.90, 970.39 503.07 C 970.62 508.25, 970.33 511.60, 970.80 515.25 C 971.27 518.89, 971.12 520.15, 972.72 521.30 C 974.33 522.44, 977.10 521.46, 978.83 520.98 C 980.56 520.50, 982.23 518.62, 981.38 518.88 C 980.54 519.15, 975.12 521.40, 974.60 522.30" style="stroke: black; fill: black;"/><path d="M 1088.86,356.78 C 1087.84 358.81, 1088.95 361.10, 1089.66 365.91 C 1090.37 370.73, 1091.12 373.92, 1092.39 380.85 C 1093.67 387.77, 1094.62 392.07, 1096.04 400.54 C 1097.46 409.01, 1097.92 413.82, 1099.47 423.19 C 1101.02 432.56, 1102.06 437.83, 1103.79 447.39 C 1105.51 456.94, 1106.20 461.66, 1108.11 470.95 C 1110.02 480.25, 1111.32 485.28, 1113.32 493.87 C 1115.33 502.46, 1116.17 506.74, 1118.14 513.90 C 1120.11 521.06, 1120.97 524.41, 1123.18 529.68 C 1125.39 534.96, 1127.05 538.67, 1129.18 540.28 C 1131.32 541.88, 1134.02 540.25, 1133.87 537.69 C 1133.71 535.14, 1130.53 532.54, 1128.41 527.49 C 1126.29 522.44, 1125.36 519.37, 1123.26 512.42 C 1121.15 505.47, 1120.06 501.23, 1117.90 492.75 C 1115.73 484.28, 1114.40 479.28, 1112.45 470.05 C 1110.51 460.82, 1109.82 456.13, 1108.17 446.61 C 1106.52 437.09, 1105.54 431.84, 1104.21 422.47 C 1102.89 413.09, 1102.59 408.27, 1101.54 399.74 C 1100.50 391.21, 1099.86 386.84, 1098.99 379.83 C 1098.12 372.82, 1098.03 369.52, 1097.19 364.70 C 1096.34 359.88, 1096.43 357.31, 1094.76 355.72 C 1093.09 354.14, 1089.88 354.74, 1088.86 356.78" style="stroke: black; fill: black;"/><path d="M 1161.15,455.22 C 1159.50 453.83, 1157.85 453.41, 1155.13 453.88 C 1152.40 454.34, 1151.08 455.56, 1147.53 457.53 C 1143.97 459.50, 1141.33 460.99, 1137.34 463.71 C 1133.35 466.42, 1131.34 468.21, 1127.57 471.09 C 1123.81 473.97, 1121.83 475.25, 1118.53 478.12 C 1115.23 480.99, 1112.66 481.93, 1111.07 485.45 C 1109.48 488.98, 1109.50 492.07, 1110.57 495.73 C 1111.64 499.39, 1113.08 501.16, 1116.41 503.73 C 1119.75 506.31, 1122.29 506.94, 1127.27 508.61 C 1132.24 510.27, 1135.21 510.90, 1141.30 512.06 C 1147.40 513.22, 1150.94 513.76, 1157.74 514.40 C 1164.54 515.03, 1168.71 514.93, 1175.29 515.22 C 1181.87 515.51, 1185.38 515.76, 1190.65 515.86 C 1195.92 515.96, 1198.22 516.29, 1201.66 515.73 C 1205.10 515.17, 1206.69 514.43, 1207.83 513.05 C 1208.98 511.67, 1208.71 509.95, 1207.38 508.84 C 1206.04 507.73, 1204.52 507.65, 1201.16 507.50 C 1197.81 507.35, 1195.74 507.93, 1190.62 508.08 C 1185.49 508.23, 1181.95 508.37, 1175.52 508.24 C 1169.09 508.12, 1164.96 508.22, 1158.48 507.44 C 1152.00 506.66, 1148.63 505.90, 1143.10 504.35 C 1137.57 502.80, 1134.87 501.63, 1130.83 499.69 C 1126.80 497.75, 1125.13 496.04, 1122.93 494.65 C 1120.73 493.25, 1120.19 493.43, 1119.84 492.72 C 1119.50 492.02, 1120.05 492.50, 1121.20 491.13 C 1122.35 489.76, 1123.11 488.28, 1125.60 485.88 C 1128.08 483.47, 1130.15 481.70, 1133.63 479.12 C 1137.11 476.54, 1139.13 475.05, 1142.99 472.97 C 1146.86 470.89, 1149.51 470.15, 1152.95 468.72 C 1156.39 467.30, 1158.12 467.42, 1160.21 465.84 C 1162.30 464.25, 1163.20 462.93, 1163.39 460.81 C 1163.58 458.68, 1162.80 456.60, 1161.15 455.22" style="stroke: black; fill: black;"/><path d="M 1248.94,477.32 C 1247.72 479.07, 1247.46 480.51, 1247.84 482.93 C 1248.22 485.35, 1249.58 486.48, 1250.85 489.42 C 1252.11 492.35, 1252.99 494.20, 1254.17 497.60 C 1255.36 501.00, 1255.71 502.81, 1256.78 506.42 C 1257.85 510.03, 1257.51 513.96, 1259.53 515.66 C 1261.55 517.36, 1265.26 517.12, 1266.89 514.92 C 1268.52 512.72, 1267.85 508.74, 1267.67 504.66 C 1267.50 500.57, 1266.78 498.54, 1266.02 494.50 C 1265.27 490.47, 1265.11 488.09, 1263.91 484.49 C 1262.71 480.88, 1262.01 478.53, 1260.02 476.47 C 1258.02 474.41, 1256.14 474.00, 1253.92 474.17 C 1251.71 474.34, 1250.16 475.57, 1248.94 477.32" style="stroke: black; fill: black;"/><path d="M 1232.52,419.99 C 1232.89 422.18, 1233.61 423.66, 1234.36 423.68 C 1235.11 423.69, 1235.87 422.27, 1236.27 420.07 C 1236.66 417.87, 1236.71 414.88, 1236.33 412.67 C 1235.96 410.47, 1235.17 409.02, 1234.40 409.03 C 1233.63 409.04, 1232.87 410.54, 1232.49 412.74 C 1232.11 414.93, 1232.14 417.80, 1232.52 419.99" style="stroke: black; fill: black;"/></svg>