<svg id="svg" xmlns="http://www.w3.org/2000/svg" xmlns:xlink="http://www.w3.org/1999/xlink" width="400" height="282.08744710860367" viewBox="0, 0, 400,282.08744710860367"><g id="svgg"><path id="path0" d="M153.315 51.021 C 151.920 51.658,150.056 53.651,149.112 55.515 C 148.169 57.375,147.673 57.828,146.575 57.828 C 144.824 57.828,142.837 58.638,141.382 59.946 C 140.333 60.890,139.743 61.213,139.070 61.213 C 137.130 61.213,133.289 65.094,131.006 69.360 C 130.540 70.231,129.489 71.492,128.540 72.317 C 126.761 73.864,126.272 74.606,125.986 76.185 C 125.793 77.256,124.806 78.361,123.413 79.067 C 120.302 80.642,119.669 84.047,121.708 88.236 C 122.987 90.864,123.002 91.674,121.771 91.680 C 120.304 91.687,119.268 92.361,117.644 94.364 L 115.940 96.466 115.968 99.361 C 115.984 100.954,115.943 103.780,115.877 105.642 C 115.811 107.504,115.871 109.259,116.010 109.542 C 116.343 110.220,119.400 113.269,120.148 113.670 C 120.609 113.917,120.737 114.266,120.750 115.313 C 120.778 117.576,122.787 121.274,124.410 122.051 C 125.432 122.539,125.815 122.937,126.312 124.025 C 126.695 124.864,127.310 125.630,127.912 126.017 C 128.450 126.363,129.338 127.347,129.886 128.203 C 130.433 129.060,131.016 129.760,131.179 129.760 C 131.343 129.760,132.549 130.847,133.859 132.174 C 136.624 134.978,139.517 136.558,142.861 137.092 C 144.326 137.326,145.598 137.826,148.054 139.134 L 151.307 140.866 154.575 141.032 C 157.727 141.192,157.884 141.231,158.980 142.112 C 161.007 143.740,167.523 144.445,171.227 143.435 C 172.080 143.202,173.905 142.762,175.281 142.456 C 178.266 141.793,180.322 140.898,181.761 139.635 C 182.765 138.753,182.874 138.722,183.896 139.028 C 186.288 139.745,187.285 139.394,188.827 137.291 C 189.260 136.701,190.650 135.544,191.916 134.719 C 196.246 131.898,196.903 130.635,195.745 127.356 L 195.088 125.494 195.953 124.816 C 196.429 124.444,197.104 123.477,197.452 122.667 C 197.800 121.858,198.400 120.719,198.786 120.137 C 199.335 119.306,199.465 118.796,199.390 117.768 L 199.295 116.458 200.694 115.986 C 203.023 115.202,204.269 110.778,203.436 106.254 C 203.253 105.261,203.103 103.121,203.103 101.498 C 203.103 99.875,202.914 97.224,202.682 95.607 C 202.451 93.989,202.191 92.136,202.104 91.488 C 202.017 90.840,201.636 89.887,201.257 89.372 C 200.190 87.919,199.811 86.947,198.846 83.183 C 198.353 81.262,197.629 79.055,197.237 78.279 C 196.728 77.272,196.466 76.172,196.319 74.428 C 196.002 70.683,195.702 70.022,193.963 69.253 C 192.210 68.478,191.974 68.216,191.539 66.573 C 190.937 64.299,188.901 62.969,186.560 63.320 C 185.357 63.500,185.266 63.461,183.982 62.189 C 182.385 60.606,181.702 60.309,180.216 60.547 C 179.192 60.710,178.993 60.634,178.049 59.720 C 176.766 58.476,175.868 58.238,174.079 58.667 C 172.774 58.980,172.572 58.948,170.708 58.130 C 169.512 57.605,167.460 57.044,165.534 56.715 C 162.013 56.115,161.794 55.972,160.194 53.248 C 158.832 50.930,155.720 49.923,153.315 51.021 M242.313 60.374 C 241.305 60.511,239.908 60.767,239.210 60.942 C 238.512 61.117,236.417 61.554,234.556 61.914 C 230.814 62.638,228.872 63.319,226.528 64.731 C 225.668 65.249,224.520 65.752,223.977 65.850 C 221.558 66.284,219.978 69.454,221.307 71.210 C 222.030 72.167,221.790 72.859,220.269 74.200 C 218.829 75.470,218.816 75.496,218.605 77.585 C 218.278 80.826,217.339 83.335,215.683 85.385 C 215.158 86.034,214.506 87.177,214.233 87.923 C 213.961 88.670,213.308 90.296,212.783 91.537 C 212.258 92.779,211.650 94.893,211.433 96.236 C 211.215 97.579,210.913 99.166,210.761 99.762 C 209.851 103.332,210.668 109.756,212.274 111.661 L 213.069 112.603 212.424 115.103 C 211.515 118.629,211.970 120.002,214.162 120.352 C 215.423 120.554,215.797 121.080,215.797 122.651 C 215.797 126.833,219.572 133.509,222.979 135.351 C 223.749 135.767,224.703 136.587,225.100 137.173 C 225.496 137.759,226.192 138.482,226.646 138.780 C 228.024 139.684,237.866 142.889,240.197 143.193 C 240.973 143.295,241.925 143.497,242.313 143.644 C 242.701 143.791,243.704 144.024,244.541 144.162 C 245.379 144.300,248.087 145.064,250.558 145.860 C 254.494 147.128,255.180 147.272,256.087 147.028 C 260.092 145.947,264.129 144.657,265.444 144.037 C 266.298 143.635,267.161 143.305,267.362 143.303 C 267.943 143.299,269.432 142.467,270.709 141.433 C 271.356 140.909,272.811 140.010,273.943 139.435 C 275.987 138.397,279.881 134.835,281.747 132.299 C 282.146 131.756,283.131 130.664,283.935 129.873 C 284.739 129.082,285.921 127.552,286.561 126.474 C 288.550 123.128,289.372 122.402,290.774 122.757 C 292.760 123.262,293.463 122.622,295.706 118.270 C 300.275 109.400,299.738 96.436,294.760 95.440 C 293.787 95.245,293.739 94.862,294.499 93.371 C 295.615 91.184,295.216 89.984,292.205 86.460 C 290.425 84.378,290.201 83.965,289.294 81.085 C 288.093 77.273,287.387 76.264,284.015 73.551 C 282.567 72.385,280.860 70.878,280.222 70.201 C 277.147 66.941,275.197 65.842,273.331 66.321 C 272.154 66.622,271.748 66.621,271.002 66.310 C 270.505 66.103,269.337 65.687,268.406 65.386 C 267.475 65.085,265.698 64.348,264.457 63.749 C 260.362 61.771,259.423 61.445,257.546 61.351 C 256.537 61.300,254.062 61.048,252.045 60.790 C 247.285 60.181,244.578 60.065,242.313 60.374 M159.535 61.175 C 160.980 62.224,161.991 62.513,165.585 62.905 C 167.842 63.151,168.849 63.401,169.817 63.953 C 172.153 65.288,173.050 65.661,174.753 66.009 C 176.942 66.456,177.589 66.805,179.546 68.594 C 180.880 69.813,181.443 70.127,182.754 70.384 C 184.146 70.656,184.405 70.815,184.832 71.657 C 185.102 72.188,185.732 72.811,186.242 73.051 C 186.999 73.406,187.495 74.119,188.999 77.010 C 190.007 78.949,191.227 81.107,191.710 81.805 C 192.193 82.504,193.225 84.344,194.003 85.896 C 194.781 87.447,195.614 89.097,195.855 89.563 C 197.011 91.799,197.311 114.205,196.201 115.364 C 195.272 116.334,194.640 117.938,194.640 119.328 C 194.640 119.961,194.448 120.852,194.212 121.307 C 193.977 121.762,193.708 122.696,193.613 123.383 C 193.454 124.546,193.357 124.665,192.211 125.103 C 190.919 125.596,190.041 126.574,189.502 128.122 C 189.061 129.385,186.015 132.299,185.134 132.299 C 184.760 132.299,183.617 132.743,182.594 133.286 C 181.462 133.887,180.335 134.274,179.718 134.274 C 179.158 134.274,177.880 134.671,176.869 135.159 C 175.860 135.646,174.210 136.287,173.202 136.584 C 168.289 138.028,168.321 138.022,167.062 137.692 C 166.401 137.519,165.347 137.377,164.721 137.377 C 164.095 137.377,163.225 137.192,162.788 136.966 C 162.351 136.740,161.247 136.423,160.334 136.263 C 159.421 136.102,157.980 135.780,157.132 135.546 C 156.283 135.311,155.197 135.120,154.717 135.120 C 153.574 135.120,149.873 133.756,145.926 131.880 C 144.184 131.052,142.393 130.294,141.946 130.196 C 141.499 130.098,140.637 129.500,140.031 128.867 C 139.424 128.234,138.283 127.426,137.494 127.070 C 136.569 126.653,135.627 125.908,134.845 124.973 C 134.090 124.072,133.024 123.217,132.031 122.715 C 129.957 121.668,129.889 121.571,129.036 118.447 C 128.323 115.836,127.656 113.729,126.695 111.046 C 126.333 110.035,125.736 109.259,124.395 108.056 L 122.584 106.431 122.514 102.792 C 122.430 98.361,122.459 98.255,123.866 97.876 C 125.215 97.513,126.006 96.385,126.229 94.508 C 126.410 92.981,126.736 91.662,127.320 90.103 C 127.678 89.145,127.697 88.636,127.431 87.085 L 127.112 85.220 128.402 84.006 C 129.381 83.086,129.801 82.413,130.142 81.222 C 130.814 78.877,137.399 71.398,140.729 69.197 C 141.600 68.622,142.948 67.557,143.724 66.832 C 146.860 63.898,149.975 62.372,152.891 62.342 C 154.261 62.328,156.181 61.589,156.805 60.835 C 157.372 60.148,158.277 60.261,159.535 61.175 M252.620 67.269 C 253.461 67.513,254.818 67.837,255.636 67.989 C 256.454 68.141,258.011 68.634,259.097 69.086 C 260.183 69.537,262.767 70.445,264.839 71.103 C 267.746 72.027,268.969 72.573,270.198 73.495 C 271.914 74.783,273.405 75.335,274.565 75.113 C 277.157 74.618,285.342 84.823,286.154 89.563 C 287.338 96.483,288.121 98.633,290.277 100.878 C 292.473 103.165,292.594 104.328,290.832 106.239 C 289.465 107.722,289.394 108.560,290.409 111.256 C 291.482 114.107,291.382 114.910,289.691 117.000 C 288.908 117.967,288.115 118.760,287.928 118.762 C 286.816 118.771,284.604 120.223,283.569 121.624 C 282.957 122.453,282.115 123.314,281.698 123.537 C 280.660 124.092,279.831 125.527,279.831 126.768 C 279.831 127.988,277.438 129.748,274.979 130.338 C 273.664 130.653,273.220 131.028,271.864 132.967 C 271.593 133.354,270.300 134.198,268.990 134.844 C 267.479 135.590,266.115 136.522,265.256 137.396 C 262.724 139.975,258.236 140.939,253.521 139.915 C 252.305 139.651,251.013 139.492,250.651 139.561 C 249.705 139.742,248.883 139.205,248.264 138.002 C 247.353 136.231,240.295 132.995,236.595 132.652 C 234.980 132.503,234.958 132.511,233.856 133.670 C 232.526 135.068,232.587 135.063,230.406 133.962 C 227.707 132.599,222.069 126.617,221.410 124.415 C 221.125 123.464,221.164 123.178,221.737 122.031 L 222.387 120.729 221.727 119.814 C 221.363 119.311,220.642 118.542,220.124 118.104 C 219.572 117.637,219.182 117.045,219.182 116.674 C 219.182 115.322,218.270 113.046,217.297 111.969 C 216.363 110.935,216.300 110.752,216.426 109.441 C 216.604 107.584,216.808 107.445,217.693 108.577 C 219.145 110.432,223.485 111.285,225.686 110.147 C 228.061 108.919,230.249 102.078,228.917 100.045 C 227.520 97.912,221.388 97.179,218.512 98.801 C 217.755 99.228,217.011 99.577,216.858 99.577 C 216.147 99.577,217.926 93.625,219.763 89.860 C 220.411 88.533,220.592 87.775,220.592 86.400 C 220.592 84.811,220.665 84.592,221.332 84.154 C 222.976 83.077,227.087 78.024,228.190 75.724 C 229.220 73.576,229.374 73.402,230.998 72.536 C 232.638 71.662,233.103 71.263,234.897 69.190 C 236.624 67.195,248.090 65.952,252.620 67.269 M181.545 93.554 C 179.800 94.090,177.036 96.773,175.936 98.998 C 172.538 105.872,180.576 114.691,188.321 112.586 C 193.876 111.077,197.095 101.784,193.732 96.966 C 192.055 94.563,184.839 92.543,181.545 93.554 M48.700 122.143 C 46.711 122.761,46.278 124.347,47.614 126.120 C 50.731 130.259,52.568 132.246,54.355 133.410 C 55.412 134.098,56.771 134.985,57.376 135.381 C 57.981 135.777,58.806 136.533,59.209 137.062 C 61.517 140.084,64.046 141.975,66.946 142.848 C 68.856 143.423,69.527 143.938,70.955 145.923 C 71.652 146.891,72.938 148.185,73.834 148.819 C 75.138 149.741,75.486 150.154,75.616 150.934 C 76.100 153.848,77.689 154.386,80.515 152.594 C 82.098 151.590,82.417 151.574,83.896 152.430 C 84.530 152.797,85.731 153.258,86.564 153.454 C 87.575 153.692,88.560 154.203,89.530 154.992 C 90.328 155.643,91.572 156.521,92.293 156.944 C 93.015 157.367,93.759 157.898,93.948 158.126 C 94.137 158.353,94.973 158.737,95.806 158.979 C 97.626 159.508,97.722 159.965,96.214 160.917 C 95.606 161.301,94.768 162.061,94.351 162.607 C 92.577 164.934,85.031 169.027,82.516 169.027 C 81.435 169.027,78.826 168.722,78.068 168.508 C 77.128 168.242,77.719 163.285,79.195 159.043 C 80.083 156.492,79.943 155.672,78.445 154.663 C 75.743 152.842,73.837 154.710,72.231 160.756 C 71.885 162.057,71.343 163.619,71.025 164.229 C 69.768 166.641,70.635 169.771,73.077 171.639 C 73.896 172.266,74.968 173.350,75.458 174.048 C 76.633 175.722,77.367 176.089,79.126 175.883 C 79.901 175.792,81.738 175.596,83.207 175.448 C 87.089 175.057,89.855 173.881,93.064 171.257 C 94.261 170.279,95.838 169.231,99.928 166.700 L 101.831 165.523 102.966 165.977 C 103.591 166.227,104.639 166.434,105.295 166.436 C 107.245 166.443,107.323 166.589,106.759 169.145 C 105.971 172.712,105.956 173.302,106.611 175.053 C 107.574 177.626,107.237 179.972,105.903 179.972 C 104.262 179.972,103.260 181.491,103.223 184.034 C 103.212 184.825,103.112 186.044,103.001 186.742 C 102.876 187.533,102.951 188.719,103.201 189.890 C 103.585 191.693,103.575 191.831,102.939 193.366 C 102.280 194.956,102.279 194.972,102.793 196.284 C 103.076 197.009,103.660 198.629,104.088 199.884 C 105.181 203.080,106.131 204.430,107.583 204.846 C 108.361 205.069,109.257 205.698,110.296 206.750 C 113.023 209.512,119.482 211.566,125.439 211.566 C 126.478 211.566,128.034 211.686,128.897 211.834 C 136.290 213.100,140.417 212.550,145.557 209.613 C 149.006 207.642,150.564 206.903,152.368 206.384 C 154.244 205.844,155.505 204.594,156.031 202.755 C 156.516 201.058,156.668 200.930,158.372 200.789 C 160.964 200.574,162.177 199.007,164.220 193.230 C 164.522 192.377,164.887 191.461,165.032 191.194 C 165.177 190.928,165.379 190.008,165.480 189.149 C 165.700 187.273,165.895 187.226,166.978 188.787 C 168.616 191.148,169.056 191.573,170.765 192.438 C 173.139 193.641,174.183 193.848,175.951 193.463 C 178.680 192.869,179.247 194.398,176.772 195.678 C 176.143 196.003,176.006 196.227,176.143 196.707 C 176.240 197.044,176.504 199.025,176.731 201.108 C 177.543 208.549,179.796 211.567,184.728 211.818 C 193.470 212.264,196.104 211.911,197.339 210.128 C 198.482 208.479,199.636 207.875,201.493 207.952 C 203.430 208.033,203.702 207.814,205.090 205.053 C 205.690 203.859,206.506 202.403,206.903 201.819 C 207.300 201.234,207.701 200.272,207.796 199.681 C 207.927 198.863,208.326 198.267,209.468 197.187 C 211.257 195.495,211.034 195.516,213.825 196.791 L 216.062 197.814 221.501 197.503 C 224.492 197.332,227.383 197.062,227.925 196.903 C 230.486 196.154,233.050 197.234,233.598 199.295 C 233.763 199.915,234.276 201.017,234.737 201.743 L 235.576 203.062 235.031 204.281 C 234.547 205.364,234.324 210.613,234.653 213.178 C 234.677 213.367,235.273 214.170,235.976 214.962 C 236.680 215.755,237.640 217.216,238.110 218.210 C 238.740 219.544,239.445 220.442,240.806 221.644 C 241.819 222.540,243.349 223.939,244.206 224.755 C 245.475 225.963,246.137 226.349,247.776 226.838 C 248.883 227.167,250.740 227.755,251.904 228.143 C 253.648 228.725,254.862 228.889,258.815 229.078 C 268.290 229.532,271.130 228.706,278.897 223.233 C 288.319 216.594,292.158 202.104,287.592 190.418 C 287.043 189.014,286.597 187.581,286.601 187.233 C 286.604 186.885,286.666 185.585,286.738 184.344 C 286.810 183.103,286.872 181.926,286.876 181.728 C 286.880 181.530,287.831 180.936,288.991 180.407 C 291.468 179.278,292.240 178.301,292.242 176.288 C 292.243 174.384,293.517 173.230,297.397 171.618 C 299.847 170.600,300.691 169.959,301.615 168.411 C 303.238 165.691,305.148 165.367,306.461 167.590 C 307.100 168.671,307.708 169.043,310.489 170.053 C 311.758 170.514,313.345 171.267,314.015 171.726 C 315.635 172.836,316.317 173.028,318.397 172.959 C 319.807 172.912,320.438 173.046,321.614 173.642 C 323.691 174.695,324.531 174.390,329.449 170.799 C 330.152 170.286,330.767 170.099,331.751 170.099 C 333.898 170.099,334.833 168.712,336.696 162.764 C 337.673 159.644,337.936 159.108,338.981 158.105 C 341.894 155.309,341.818 147.557,338.844 144.083 C 337.143 142.097,335.120 137.294,335.120 135.244 C 335.120 133.846,338.460 130.619,339.915 130.611 C 345.690 130.577,348.178 124.662,343.004 123.268 C 340.514 122.598,339.040 123.619,338.080 126.678 L 337.587 128.249 335.296 128.229 C 332.386 128.203,331.254 128.773,330.577 130.606 C 330.325 131.288,329.738 132.300,329.274 132.853 C 328.809 133.407,328.163 134.366,327.839 134.984 C 327.515 135.602,326.749 136.516,326.136 137.015 C 325.524 137.515,324.739 138.530,324.391 139.272 C 323.573 141.018,322.440 142.205,315.375 148.726 C 313.234 150.702,311.165 152.860,310.776 153.522 C 310.387 154.184,309.676 155.014,309.196 155.368 C 308.716 155.721,308.008 156.632,307.622 157.393 C 306.756 159.103,306.739 159.113,304.575 159.218 C 301.805 159.352,299.682 160.654,297.569 163.515 C 296.217 165.344,295.623 165.750,292.852 166.731 C 289.807 167.808,284.750 169.879,283.039 170.749 C 282.243 171.153,280.974 171.635,280.218 171.820 C 276.258 172.788,275.278 174.873,277.732 177.107 C 279.250 178.488,279.275 178.413,276.775 179.904 C 273.647 181.770,272.145 181.858,271.715 180.201 C 270.914 177.109,266.649 177.476,262.328 181.009 C 261.223 181.912,260.028 182.886,259.673 183.174 C 259.091 183.645,258.877 183.662,257.471 183.347 C 255.975 183.012,255.843 183.032,254.120 183.844 C 253.134 184.309,251.741 184.901,251.023 185.161 C 250.127 185.485,249.351 186.070,248.538 187.034 C 247.216 188.601,246.884 188.690,245.511 187.842 C 244.314 187.102,243.579 187.265,242.237 188.568 C 240.901 189.865,239.682 189.908,238.037 188.717 C 236.343 187.489,235.192 187.576,231.735 189.190 C 228.696 190.610,228.451 190.645,221.016 190.746 C 217.805 190.790,215.598 189.888,214.837 188.222 C 213.589 185.491,210.346 185.624,209.657 188.434 C 209.227 190.185,208.023 189.857,207.016 187.716 C 205.889 185.318,203.615 185.106,201.786 187.228 L 200.892 188.265 197.414 188.199 C 193.805 188.130,192.948 187.820,192.948 186.584 C 192.948 185.193,188.195 183.946,183.780 184.179 C 180.430 184.356,177.255 183.945,175.386 183.094 C 174.469 182.676,173.593 182.503,172.617 182.548 C 171.347 182.606,171.118 182.524,170.549 181.811 C 169.950 181.060,169.790 181.012,168.039 181.069 C 166.228 181.127,166.130 181.095,164.960 180.036 C 162.476 177.787,161.876 177.598,160.600 178.662 C 159.004 179.991,157.860 180.130,156.492 179.160 C 154.581 177.805,152.567 177.465,150.449 178.138 C 149.935 178.301,149.686 178.092,148.860 176.801 C 147.594 174.822,146.736 174.170,145.099 173.946 C 144.346 173.843,143.171 173.379,142.388 172.877 C 141.174 172.098,140.780 171.995,139.144 172.022 C 137.377 172.053,137.100 171.961,133.758 170.230 C 129.643 168.100,128.741 167.959,127.704 169.284 C 126.887 170.328,126.432 170.258,124.510 168.790 C 122.906 167.566,121.638 166.900,118.993 165.893 C 117.134 165.185,116.854 164.976,116.217 163.820 C 115.026 161.659,112.183 159.723,109.041 158.935 C 108.673 158.842,107.729 158.217,106.942 157.546 C 106.156 156.875,104.897 156.121,104.144 155.871 C 102.706 155.394,99.366 152.772,98.232 151.231 C 97.439 150.153,96.510 149.665,94.440 149.239 C 93.256 148.995,92.285 148.511,90.773 147.410 C 89.642 146.587,88.181 145.642,87.525 145.311 C 86.870 144.979,85.916 144.340,85.405 143.891 C 84.176 142.813,82.396 142.357,80.266 142.577 C 77.730 142.838,75.498 141.723,73.997 139.444 C 72.748 137.548,71.538 136.813,69.661 136.813 C 68.134 136.812,67.676 136.442,67.889 135.380 C 68.013 134.758,67.877 134.440,67.239 133.866 C 66.795 133.465,66.048 132.755,65.578 132.288 C 65.037 131.749,64.315 131.375,63.604 131.265 C 62.963 131.167,61.999 130.704,61.354 130.186 C 60.001 129.099,58.839 128.484,57.661 128.230 C 57.027 128.094,56.611 127.724,56.134 126.876 C 54.202 123.439,51.030 121.419,48.700 122.143 M333.048 148.251 C 334.349 149.243,334.278 150.012,332.569 153.425 C 331.359 155.843,330.968 156.371,329.951 156.967 C 327.825 158.213,326.375 160.255,326.375 162.001 C 326.375 163.136,324.752 164.231,320.666 165.852 C 318.624 166.662,317.977 166.499,316.814 164.879 C 316.305 164.171,315.583 163.391,315.208 163.146 C 313.902 162.290,314.930 161.005,317.192 160.666 C 318.626 160.451,319.519 159.587,320.424 157.543 C 320.962 156.325,321.111 156.197,324.906 153.684 C 325.551 153.257,325.729 153.249,326.600 153.613 C 328.930 154.587,330.324 153.409,330.324 150.467 C 330.324 147.589,331.222 146.859,333.048 148.251 M122.126 174.569 C 124.468 176.543,125.641 176.912,127.506 176.261 C 128.276 175.993,128.707 176.027,129.965 176.455 C 131.304 176.910,131.696 176.932,133.156 176.630 C 135.236 176.200,137.215 177.024,138.325 178.781 C 139.203 180.173,139.605 180.480,140.902 180.750 C 141.765 180.929,142.048 181.151,142.291 181.838 C 142.771 183.200,146.049 186.683,147.421 187.290 C 148.109 187.595,148.894 188.234,149.255 188.785 C 149.602 189.314,150.308 190.025,150.824 190.363 C 151.538 190.831,151.763 191.179,151.763 191.815 C 151.763 192.274,152.035 193.211,152.368 193.897 L 152.974 195.143 152.381 195.975 C 152.055 196.433,150.959 197.293,149.947 197.885 C 147.916 199.073,147.199 199.666,146.490 200.749 C 146.217 201.165,145.156 201.864,143.998 202.392 C 142.733 202.969,141.752 203.633,141.366 204.174 C 140.579 205.281,139.652 205.562,135.718 205.891 C 132.344 206.174,132.263 206.165,130.460 205.332 C 129.558 204.915,128.691 204.813,126.228 204.834 C 122.968 204.862,117.706 204.150,116.502 203.519 C 114.775 202.613,111.428 198.240,111.416 196.871 C 111.405 195.736,110.868 194.924,110.124 194.918 C 109.348 194.912,108.997 194.599,108.783 193.724 C 108.644 193.155,108.699 192.948,108.990 192.948 C 109.593 192.948,109.796 191.236,109.587 187.897 C 109.402 184.924,109.406 184.899,110.297 183.216 C 110.790 182.285,111.549 180.825,111.983 179.972 C 112.417 179.118,113.120 178.103,113.545 177.715 C 113.970 177.327,114.476 176.641,114.669 176.191 C 115.004 175.410,115.107 175.371,116.884 175.345 C 118.594 175.320,118.824 175.242,119.665 174.401 C 120.786 173.280,120.579 173.266,122.126 174.569 M278.518 186.287 C 280.031 186.928,280.443 187.641,280.687 190.046 C 280.810 191.254,281.168 192.941,281.482 193.794 C 283.316 198.765,283.305 200.669,281.422 204.737 C 280.725 206.243,279.780 208.688,279.323 210.170 C 276.846 218.201,272.883 220.890,262.286 221.728 C 260.377 221.879,258.283 222.079,257.633 222.172 C 256.779 222.294,255.841 222.145,254.248 221.633 C 253.037 221.244,251.507 220.783,250.849 220.608 C 250.009 220.384,249.463 220.009,249.012 219.345 C 248.659 218.826,247.737 217.896,246.964 217.279 C 244.655 215.438,244.039 214.764,243.554 213.551 C 243.300 212.916,242.866 212.238,242.590 212.045 C 240.916 210.872,238.992 204.410,239.502 201.669 C 239.840 199.853,239.792 198.377,239.365 197.393 C 239.044 196.654,239.864 196.479,241.642 196.905 C 243.066 197.247,243.293 197.227,244.706 196.642 C 246.605 195.855,251.448 194.640,252.689 194.640 C 254.412 194.640,256.567 193.252,257.687 191.419 C 257.859 191.137,259.226 190.629,261.195 190.115 C 263.531 189.505,265.039 188.910,266.666 187.956 C 270.540 185.685,275.459 184.993,278.518 186.287 M195.769 194.122 C 196.853 195.618,197.320 195.933,198.828 196.186 C 199.981 196.379,200.043 196.436,199.869 197.138 C 199.767 197.548,199.587 198.483,199.470 199.215 C 199.192 200.955,198.699 201.452,195.874 202.839 C 194.460 203.533,193.283 204.324,192.931 204.819 C 191.990 206.140,191.631 206.215,188.411 205.758 C 183.385 205.045,183.192 204.785,183.032 198.519 L 182.926 194.358 184.420 194.358 C 185.241 194.358,186.369 194.168,186.926 193.935 C 187.483 193.702,188.780 193.497,189.809 193.479 C 190.837 193.460,192.059 193.348,192.525 193.230 C 194.397 192.753,194.873 192.884,195.769 194.122 " stroke="none" fill="#000000" fill-rule="evenodd"></path></g></svg>