<svg id="svg" xmlns="http://www.w3.org/2000/svg" xmlns:xlink="http://www.w3.org/1999/xlink" width="400" height="130.45995496944354" viewBox="0, 0, 400,130.45995496944354"><g id="svgg"><path id="path0" d="M116.278 0.188 C 111.037 1.335,108.465 6.048,109.814 12.030 C 110.156 13.542,110.198 13.752,111.181 18.784 C 112.204 24.025,112.301 24.541,112.632 26.439 C 112.805 27.430,113.034 28.733,113.141 29.334 C 113.792 33.001,115.402 42.516,115.656 44.194 C 115.831 45.355,117.322 54.134,117.469 54.873 C 117.539 55.227,117.890 57.166,118.248 59.183 C 122.780 84.700,125.481 93.972,129.476 97.736 C 136.354 104.215,146.643 96.677,142.890 87.909 C 142.642 87.328,142.123 86.316,141.738 85.659 C 140.429 83.428,138.644 77.514,136.777 69.218 C 136.642 68.617,136.328 67.227,136.079 66.131 C 135.511 63.629,134.871 60.450,134.199 56.803 C 133.913 55.246,133.621 53.683,133.550 53.329 C 133.425 52.699,132.656 48.096,132.142 44.902 C 131.901 43.400,131.566 41.070,130.783 35.445 C 128.968 22.397,128.192 17.079,127.562 13.381 C 127.387 12.354,127.131 10.629,126.992 9.547 C 126.104 2.634,121.896 -1.042,116.278 0.188 M26.375 1.032 C 20.004 1.786,14.029 3.815,9.712 6.688 C 9.216 7.019,8.617 7.328,8.382 7.375 C 5.743 7.903,2.985 10.772,2.237 13.766 C 2.122 14.226,1.806 15.008,1.535 15.503 C -0.698 19.581,-0.438 24.656,2.175 27.980 C 2.859 28.850,2.889 28.957,3.085 31.200 C 3.154 31.978,3.299 33.512,3.408 34.609 C 3.713 37.668,4.110 44.035,4.379 50.177 C 4.452 51.840,4.566 54.416,4.633 55.902 C 5.065 65.557,5.120 93.765,4.713 97.137 C 3.411 107.944,3.789 110.464,7.152 113.405 C 10.643 116.457,15.553 116.195,18.983 112.773 C 21.539 110.223,22.076 107.640,21.763 99.394 C 21.677 97.127,21.522 93.043,21.419 90.318 C 21.102 81.938,20.967 76.534,20.884 68.863 L 20.805 61.496 21.306 61.708 C 23.399 62.593,25.759 62.508,29.077 61.428 C 31.022 60.795,35.708 59.979,39.756 59.569 C 53.606 58.167,65.640 59.625,76.552 64.027 C 80.181 65.491,83.686 67.600,85.496 69.410 C 87.939 71.851,88.137 72.423,87.146 74.187 C 84.148 79.529,76.022 85.280,64.265 90.380 C 63.345 90.779,62.158 91.301,61.628 91.541 C 58.768 92.831,55.108 94.113,51.854 94.963 C 48.155 95.929,46.572 96.113,40.913 96.234 C 36.361 96.331,35.378 96.413,34.416 96.774 C 26.451 99.763,26.857 109.896,35.051 112.643 C 36.946 113.278,41.286 113.536,44.590 113.210 C 50.880 112.589,59.692 110.071,67.417 106.688 C 72.948 104.265,75.501 103.134,75.780 102.982 C 75.957 102.885,76.854 102.437,77.774 101.985 C 78.694 101.533,79.670 101.036,79.942 100.882 C 80.214 100.728,80.938 100.335,81.550 100.008 C 95.236 92.715,103.610 83.494,104.486 74.751 C 105.081 68.814,103.144 63.921,98.055 58.506 C 92.667 52.771,80.501 47.250,67.803 44.777 C 66.777 44.577,65.631 44.373,65.256 44.323 C 64.402 44.210,64.390 44.232,65.943 43.066 C 75.121 36.171,78.507 28.502,75.954 20.392 C 72.854 10.544,59.366 3.266,40.142 1.070 C 37.352 0.751,28.942 0.728,26.375 1.032 M297.523 17.324 C 292.178 18.738,289.658 22.910,290.696 28.627 C 290.811 29.263,291.046 30.595,291.217 31.586 C 291.388 32.576,291.731 34.458,291.980 35.767 C 292.229 37.076,292.464 38.321,292.502 38.533 C 292.540 38.746,292.892 40.598,293.284 42.650 C 294.071 46.765,294.939 51.917,295.463 55.581 C 296.050 59.691,296.241 60.883,297.068 65.616 C 297.614 68.741,297.753 69.518,298.360 72.821 C 298.652 74.413,299.034 76.526,299.208 77.517 C 299.497 79.165,299.814 80.948,300.344 83.903 C 300.567 85.146,301.520 89.737,302.017 91.965 C 302.326 93.344,302.333 93.460,302.154 94.217 C 301.283 97.909,302.727 103.825,305.130 106.408 C 305.340 106.634,305.557 107.214,305.826 108.273 C 309.988 124.631,313.689 130.460,319.910 130.460 C 327.059 130.460,330.549 122.798,326.314 116.400 C 325.976 115.889,325.649 115.391,325.587 115.293 C 325.495 115.147,325.565 115.132,325.973 115.210 C 329.653 115.909,334.748 116.392,340.238 116.561 C 342.644 116.636,345.423 116.754,346.414 116.825 C 347.404 116.896,350.560 116.967,353.426 116.983 L 358.636 117.013 360.073 116.670 C 367.172 114.974,370.398 108.593,366.884 103.198 C 364.596 99.684,361.217 98.699,353.361 99.256 C 348.150 99.626,339.178 99.531,335.671 99.068 C 335.140 98.998,334.214 98.876,333.612 98.797 C 331.735 98.550,325.667 96.942,325.024 96.520 C 324.852 96.407,324.973 96.305,326.858 94.986 C 328.490 93.842,331.355 92.248,331.777 92.248 C 331.826 92.248,332.505 91.994,333.286 91.683 C 334.067 91.372,335.285 90.931,335.992 90.703 C 341.049 89.074,344.033 85.254,344.033 80.412 C 344.033 72.579,336.086 67.911,328.664 71.384 C 325.736 72.755,319.469 76.659,316.571 78.919 C 315.702 79.597,315.704 79.598,315.485 78.353 C 314.991 75.553,314.536 72.918,314.440 72.306 C 314.379 71.917,314.215 70.962,314.075 70.183 C 312.912 63.719,312.152 58.588,311.550 53.136 C 311.012 48.265,310.967 47.867,310.774 46.381 C 310.673 45.603,310.501 44.243,310.390 43.358 C 310.280 42.473,310.134 41.344,310.065 40.849 C 309.834 39.180,309.308 34.817,309.103 32.872 C 308.578 27.882,307.979 24.402,307.376 22.837 C 306.470 20.484,304.511 18.551,302.122 17.654 C 301.265 17.332,298.298 17.119,297.523 17.324 M37.287 17.757 C 46.814 18.418,56.768 21.873,59.013 25.299 C 59.850 26.575,53.594 31.546,45.803 35.794 C 43.774 36.901,43.337 37.131,41.878 37.862 C 38.230 39.691,34.272 41.414,31.368 42.437 C 30.242 42.834,29.454 42.932,25.410 43.179 C 23.941 43.268,22.537 43.537,21.420 43.942 C 20.938 44.117,20.522 44.238,20.496 44.212 C 20.469 44.185,20.394 41.826,20.328 38.968 C 20.262 36.111,20.142 31.891,20.060 29.592 L 19.913 25.410 20.298 24.317 C 21.508 20.877,22.233 20.152,25.611 19.003 C 29.157 17.796,32.579 17.431,37.287 17.757 M373.598 46.500 C 369.559 47.658,367.541 51.134,367.546 56.931 C 367.554 65.218,372.762 69.735,378.803 66.694 C 384.566 63.793,384.968 51.214,379.415 47.547 C 377.785 46.470,375.277 46.019,373.598 46.500 M186.041 58.602 C 180.487 59.431,173.337 61.754,168.286 64.372 C 157.856 69.777,153.313 75.499,153.304 83.242 C 153.292 93.174,161.108 100.366,176.713 104.784 C 184.159 106.891,196.039 107.186,202.310 105.419 C 207.725 103.893,211.169 101.874,214.171 98.466 C 222.054 89.519,220.336 76.310,209.955 66.036 C 206.422 62.539,203.754 61.242,200.094 61.242 L 198.725 61.242 198.011 60.741 C 195.142 58.729,190.615 57.920,186.041 58.602 M281.891 59.459 C 281.007 59.597,279.154 59.907,277.774 60.149 C 274.621 60.702,273.131 60.935,271.663 61.105 C 271.026 61.178,269.781 61.322,268.897 61.425 C 267.406 61.597,264.847 61.780,261.563 61.949 C 260.820 61.987,258.099 62.075,255.516 62.145 C 246.718 62.381,242.055 63.220,238.073 65.284 L 236.776 65.956 235.307 65.903 C 226.151 65.570,221.234 75.259,226.441 83.373 L 226.844 84.001 226.687 85.519 C 226.493 87.406,226.490 92.600,226.683 95.593 C 226.946 99.687,227.094 102.815,227.209 106.722 C 227.445 114.719,228.076 116.390,231.957 119.304 C 234.903 121.516,238.601 121.752,242.761 119.991 C 248.792 117.438,250.274 112.258,247.335 103.995 C 246.111 100.555,245.307 96.988,244.905 93.213 C 244.859 92.789,244.798 92.354,244.768 92.248 C 244.734 92.128,244.898 91.950,245.204 91.774 C 248.197 90.061,250.048 86.607,250.207 82.438 C 250.244 81.465,250.288 80.669,250.304 80.669 C 250.321 80.669,250.643 80.611,251.020 80.539 C 252.991 80.165,256.141 79.806,258.926 79.638 C 259.916 79.578,261.624 79.469,262.721 79.395 C 263.818 79.320,266.163 79.171,267.932 79.063 C 269.701 78.955,271.698 78.811,272.371 78.743 C 273.043 78.676,274.259 78.557,275.072 78.479 C 283.777 77.642,287.573 76.658,290.419 74.498 C 294.495 71.404,294.984 65.339,291.440 61.836 C 288.961 59.386,286.420 58.754,281.891 59.459 M193.812 78.194 C 194.456 78.814,195.388 79.609,195.883 79.959 C 201.308 83.802,202.153 87.068,198.077 88.445 C 192.079 90.472,181.680 89.162,175.653 85.620 C 174.423 84.898,172.777 83.842,172.324 83.485 L 171.898 83.149 172.182 82.895 C 173.746 81.497,177.847 79.434,180.953 78.482 C 184.346 77.442,186.555 77.103,190.081 77.082 L 192.641 77.067 193.812 78.194 M383.853 81.434 C 376.744 83.300,373.759 90.771,377.383 97.626 C 377.806 98.426,378.292 99.425,378.462 99.846 C 378.632 100.267,378.921 100.973,379.105 101.415 C 379.855 103.224,380.876 106.876,381.338 109.399 C 383.123 119.146,395.989 120.576,399.504 111.418 L 399.924 110.325 399.973 107.237 C 400.030 103.661,399.910 102.232,399.282 99.003 C 399.034 97.729,398.714 96.022,398.571 95.210 C 397.965 91.756,396.626 87.975,395.340 86.091 C 392.790 82.353,387.903 80.371,383.853 81.434 " stroke="none" fill="#000000" fill-rule="evenodd"></path></g></svg>